<?xml version="1.0" encoding="utf-8"?>
<!-- Generator: Adobe Illustrator 21.0.2, SVG Export Plug-In . SVG Version: 6.00 Build 0)  -->
<svg version="1.1"
	 id="svg4143" inkscape:export-filename="/Users/jonathon/Downloads/Rbw.png" inkscape:export-xdpi="144" inkscape:export-ydpi="144" inkscape:version="0.91 r13725" sodipodi:docname="Rbw.svg" xmlns:cc="http://creativecommons.org/ns#" xmlns:dc="http://purl.org/dc/elements/1.1/" xmlns:inkscape="http://www.inkscape.org/namespaces/inkscape" xmlns:rdf="http://www.w3.org/1999/02/22-rdf-syntax-ns#" xmlns:sodipodi="http://sodipodi.sourceforge.net/DTD/sodipodi-0.dtd" xmlns:svg="http://www.w3.org/2000/svg"
	 xmlns="http://www.w3.org/2000/svg" xmlns:xlink="http://www.w3.org/1999/xlink" x="0px" y="0px" viewBox="0 0 20 20"
	 style="enable-background:new 0 0 20 20;" xml:space="preserve">
<style type="text/css">
	.st0{fill:#353535;}
	.st1{fill:#191919;}
</style>
<sodipodi:namedview  bordercolor="#666666" borderopacity="1.0" id="base" inkscape:current-layer="layer1" inkscape:cx="-82.694979" inkscape:cy="-5.2793236" inkscape:document-units="px" inkscape:pageopacity="0.0" inkscape:pageshadow="2" inkscape:window-height="988" inkscape:window-maximized="1" inkscape:window-width="1920" inkscape:window-x="0" inkscape:window-y="1" inkscape:zoom="3.959798" pagecolor="#ffffff" showgrid="false" units="px">
	</sodipodi:namedview>
<path id="path4770" inkscape:connector-curvature="0" class="st0" d="M8.1,17.1c-0.1-0.1-0.1-0.6-0.1-1v-0.8l-1-0.2
	C2.7,14.2,0,11.5,0.2,8.5c0.2-2.7,3-5.1,7-6c1-0.2,3.3-0.3,4.5-0.2c3.5,0.4,6.5,2.2,7.6,4.5c0.1,0.2,0.2,0.7,0.3,1.2
	c0.2,0.9,0,2-0.4,2.9c-0.3,0.6-1.4,1.8-2,2.2c-0.2,0.1-0.4,0.3-0.4,0.3s0.5,0.8,1,1.8c0.6,0.9,1,1.8,1,1.9c0,0.1-0.3,0.2-1.9,0.2
	c-2.2,0-1.9,0.1-2.7-1.4C14,15.4,13.8,15,13.7,15c-0.3,0-1.8,0.3-2,0.4c-0.1,0.1-0.1,0.4-0.1,1v0.9H9.9C8.2,17.3,8.2,17.3,8.1,17.1z
	 M12.9,13.5c0.1,0-0.1-0.1-0.2-0.2c-0.3-0.3-1-0.3-1.1,0c-0.1,0.4,0,0.4,0.6,0.4C12.6,13.6,12.9,13.5,12.9,13.5L12.9,13.5z M8.1,9.8
	c0-2.8,0-3.4,0.2-3.5c0.1-0.1,1.1-0.1,3.7-0.1c3.5,0.1,3.6,0.1,4.1,0.3c0.7,0.3,1.3,0.8,1.6,1.5c0.3,0.5,0.3,0.7,0.3,1.4
	s-0.1,0.9-0.3,1.4c-0.3,0.6-1,1.3-1.6,1.5c-0.3,0.1-0.4,0.2-0.4,0.2c0,0.1,0.1,0.1,0.3,0.2c0.2,0.1,0.3,0.1,0.7-0.1
	c0.5-0.3,1.2-1,1.4-1.5c0.6-1.3,0.4-3-0.5-4.1C16,5.1,11.2,4.4,7.8,5.5C5.5,6.3,4.1,7.8,4.1,9.4c0,1.5,1.2,2.8,3.1,3.6
	C8.1,13.3,8.1,13.6,8.1,9.8L8.1,9.8z M13.8,10.3c0.4-0.1,0.5-0.4,0.5-0.8c0-0.6-0.2-0.7-1.5-0.7h-1.1v0.8c0,0.4,0.1,0.8,0.1,0.8
	C11.8,10.5,13.5,10.5,13.8,10.3z"/>
<path id="path4762" inkscape:connector-curvature="0" class="st1" d="M8.1,15.9c-0.1-2.4,0.1-9.3,0.1-9.4c0.1-0.1,1.6-0.1,3.5-0.1
	c3.3,0,3.5,0,4,0.2C16.4,6.9,17,7.4,17.3,8c0.2,0.4,0.2,0.6,0.2,1.4c-0.1,0.6-0.1,1-0.3,1.3c-0.3,0.6-1,1.1-1.6,1.4
	c-0.3,0.1-0.6,0.3-0.6,0.3c0,0.1,0.3,0.2,0.6,0.3c0.7,0.3,0.8,0.3,0.8,0.7c0.1,0.2,0.5,1.1,1.1,2l1.1,1.8l-1.7,0.1c-1,0-1.8,0-1.8,0
	c-0.1,0-0.4-0.5-0.7-1.1c-0.3-0.6-0.7-1.2-0.8-1.3c-0.1-0.2-0.4-0.5-0.5-0.9c-0.4-0.7-0.6-0.9-1.2-0.8l-0.5-0.1V14
	c0,0.6,0,1.5,0,2.1v1H9.8H8.2L8.1,15.9L8.1,15.9z M13.9,10.3C14.3,9.9,14.3,9.3,14,9c-0.2-0.3-0.3-0.3-1.4-0.2h-1.2l-0.1,0.7
	c-0.1,1.1-0.1,1.1,1.2,1.1C13.6,10.5,13.6,10.5,13.9,10.3L13.9,10.3z"/>
<path id="path4760" inkscape:connector-curvature="0" d="M8.8,17.1C8.5,17,8.3,17,8.4,17c0.1,0,0.1-0.1,0.1-0.1s-0.1-2.4,0-5.2
	l0.1-5.1h3.4c3.2,0,3.4,0,4,0.2C16.6,7,17.1,7.4,17.4,8c0.2,0.4,0.2,0.6,0.2,1.4c0,0.8-0.1,1-0.3,1.4c-0.3,0.6-0.9,1.1-1.7,1.3
	c-0.3,0.1-0.6,0.3-0.6,0.3c0,0.1,0.3,0.2,0.6,0.4c0.7,0.3,0.8,0.4,0.9,0.7c0.1,0.2,1.6,2.9,2,3.4c0.1,0.2,0.2,0.3,0.2,0.3
	c0,0.1-3.5,0-3.5-0.1c-0.1-0.2-1.1-2.1-1.3-2.4c-0.1-0.2-0.4-0.6-0.5-0.9c-0.4-0.8-0.6-0.9-1.3-0.9l-0.6,0.1v2.2v2.2h-1.1
	C9.9,17.2,9.1,17.1,8.8,17.1L8.8,17.1z M14.1,10.5c0.6-0.4,0.7-1.3,0.1-1.7c-0.2-0.2-0.4-0.2-1.3-0.3c-1.4-0.1-1.4-0.1-1.4,1
	c0,0.5,0.1,0.9,0.1,1c0.1,0.1,0.5,0.1,1.2,0.1C13.6,10.7,13.9,10.7,14.1,10.5z"/>
</svg>
